# xmcd CD database file
#
# Track frame offsets:
#	182
#	19892
#	36460
#	53870
#	73607
#	90355
#	109477
#	125952
#	148115
#	167477
#
# Disc length: 2442 seconds
#
# Revision: 1
# Processed by: cddbd v1.4PL0 Copyright (c) Steve Scherf et al.
# Submitted via: CDex 1.50
#
DISCID=9309880a
DTITLE=Amilcar Boscan - Durando
DYEAR=1900
DGENRE=Salsa
TTITLE0=Durando
TTITLE1=La Segunda Oportunidad
TTITLE2=Un Clavo Saca Otro Clavo
TTITLE3=Melancolia Del Domingo
TTITLE4=Magia Blanca Magia Negra
TTITLE5=Los Olores Del Amor
TTITLE6=Ni Chica Ni Limonada
TTITLE7=Respuesta
TTITLE8=Gitano Amor
TTITLE9=Meditacion
EXTD=
EXTT0=
EXTT1=
EXTT2=
EXTT3=
EXTT4=
EXTT5=
EXTT6=
EXTT7=
EXTT8=
EXTT9=
PLAYORDER=
